# xmcd
#
# Track frame offsets: 
#        182
#        10852
#        20415
#        31432
#        42382
#        52885
#        65210
#        74710
#        84072
#        94070
#        105270
#        117075
#        127677
#        140635
#        151020
#        160972
#        173217
#        187697
#        200767
#        214215
#        222540
#        239485
#        254155
#        267792
#        281430
#        290752
#        303802
#
# Disc length: 4210 seconds
#
# Revision: 0
# Processed by: cddbd v1.5.2PL0 Copyright (c) Steve Scherf et al.
# Submitted via: ExactAudioCopy v0.99pb4
#
DISCID=8710701b
DTITLE=Margaret Lewis - Lonesome Bluebird
DYEAR=1900
DGENRE=Country
TTITLE0=Shake A Leg
TTITLE1=One Today, Another Tomorrow
TTITLE2=Goin' To St. Louis
TTITLE3=From The Cradle To The Blues
TTITLE4=Roll Over Beethoven
TTITLE5=Love Is A Fortune
TTITLE6=Birmingham Valley Blues
TTITLE7=You Can't Break My Heart No More
TTITLE8=No No Never
TTITLE9=Cheaters Can't Win
TTITLE10=That's Why I Cry
TTITLE11=Raggedy Ann And Player Piano
TTITLE12=And There Was No You
TTITLE13=Bow Wow Puppy Love
TTITLE14=Dust My Blues
TTITLE15=Those Lonely, Lonely Nights
TTITLE16=Reconsider Me
TTITLE17=You Oughta See My Baby
TTITLE18=It's Alright (You Can Go)
TTITLE19=John De Lee
TTITLE20=Full Grown Man
TTITLE21=Emmitt Lee
TTITLE22=Lovers Land
TTITLE23=Baby Please Forgive Me
TTITLE24=Every Time You Put Me Down
TTITLE25=My Blue Eyed Boy
TTITLE26=Look What You're Doing To Me
EXTD=
EXTT0=
EXTT1=
EXTT2=
EXTT3=
EXTT4=
EXTT5=
EXTT6=
EXTT7=
EXTT8=
EXTT9=
EXTT10=
EXTT11=
EXTT12=
EXTT13=
EXTT14=
EXTT15=
EXTT16=
EXTT17=
EXTT18=
EXTT19=
EXTT20=
EXTT21=
EXTT22=
EXTT23=
EXTT24=
EXTT25=
EXTT26=
PLAYORDER=
